<svg width="19" height="20" viewBox="0 0 19 20" fill="none" xmlns="http://www.w3.org/2000/svg">
<path fill-rule="evenodd" clip-rule="evenodd" d="M8.02226 0.995911C8.21366 0.995612 8.41957 0.995704 8.64176 0.995804L9.00799 0.995911C11.9418 0.995911 12.2896 1.00644 13.4481 1.05909C14.5195 1.10808 15.1009 1.2871 15.4883 1.4375C16.001 1.63666 16.3666 1.87473 16.751 2.25932C17.1356 2.6439 17.3736 3.01018 17.5733 3.52296C17.7237 3.90983 17.9029 4.49129 17.9517 5.56263C18.0043 6.72096 18.0158 7.06892 18.0158 10.0014C18.0158 12.9338 18.0043 13.2818 17.9517 14.4401C17.9027 15.5115 17.7237 16.0929 17.5733 16.4798C17.3741 16.9926 17.1356 17.3577 16.751 17.7421C16.3664 18.1267 16.0013 18.3647 15.4883 18.5639C15.1014 18.715 14.5195 18.8935 13.4481 18.9425C12.2898 18.9952 11.9418 19.0066 9.00799 19.0066C6.07393 19.0066 5.7262 18.9952 4.56786 18.9425C3.49652 18.8931 2.91506 18.7141 2.5275 18.5637C2.01472 18.3645 1.64845 18.1264 1.26387 17.7418C0.879281 17.3573 0.641204 16.9919 0.441586 16.4789C0.291186 16.092 0.111942 15.5106 0.0631819 14.4392C0.0105303 13.2809 0 12.9329 0 9.99864C0 7.06434 0.0105303 6.71822 0.0631819 5.55988C0.112171 4.48854 0.291186 3.90708 0.441586 3.51975C0.640746 3.00697 0.879281 2.6407 1.26387 2.25611C1.64845 1.87153 2.01472 1.63345 2.5275 1.43383C2.91484 1.28275 3.49652 1.10419 4.56786 1.05497C5.58152 1.00919 5.97435 0.995453 8.02226 0.993164V0.995911ZM14.8729 2.82028C14.1449 2.82028 13.5543 3.41021 13.5543 4.1384C13.5543 4.86637 14.1449 5.45698 14.8729 5.45698C15.6009 5.45698 16.1915 4.86637 16.1915 4.1384C16.1915 3.41044 15.6009 2.81982 14.8729 2.81982V2.82028ZM3.36694 10.0037C3.36694 6.8875 5.8934 4.36096 9.00959 4.36084C12.1259 4.36084 14.6518 6.88743 14.6518 10.0037C14.6518 13.12 12.1261 15.6454 9.00982 15.6454C5.89353 15.6454 3.36694 13.12 3.36694 10.0037Z" fill="white"/>
<path d="M9.0148 6.30225C11.0616 6.30225 12.721 7.96147 12.721 10.0085C12.721 12.0552 11.0616 13.7147 9.0148 13.7147C6.96782 13.7147 5.30859 12.0552 5.30859 10.0085C5.30859 7.96147 6.96782 6.30225 9.0148 6.30225Z" fill="white"/>
</svg>
