<svg width="22" height="22" viewBox="0 0 22 22" fill="none" xmlns="http://www.w3.org/2000/svg">
<path fill-rule="evenodd" clip-rule="evenodd" d="M0 2.64172C0 1.18336 1.18336 0 2.64172 0C4.09922 0 5.28258 1.18336 5.28344 2.64172C5.28344 4.10008 4.10008 5.30836 2.64172 5.30836C1.18336 5.30836 0 4.10008 0 2.64172ZM21.9944 22.0001V21.9992H22V13.9306C22 9.98346 21.1501 6.94299 16.5356 6.94299C14.3172 6.94299 12.8287 8.1603 12.2207 9.31444H12.1567V7.31167H7.78162V21.9992H12.3376V14.7264C12.3376 12.8112 12.7007 10.9597 15.0721 10.9597C17.4088 10.9597 17.4436 13.1451 17.4436 14.8492V22.0001H21.9944ZM0.363159 7.3125H4.92429V22.0001H0.363159V7.3125Z" fill="white"/>
</svg>