<svg width="25" height="24" viewBox="0 0 25 24" fill="none" xmlns="http://www.w3.org/2000/svg">
<path d="M0 12C0 17.0831 3.21295 21.4258 7.7471 23.1746C7.64048 22.2257 7.54539 20.7692 7.79032 19.731C8.01076 18.7949 9.21958 13.7672 9.21958 13.7672C9.21958 13.7672 8.85506 13.0481 8.85506 11.9858C8.85506 10.3165 9.83623 9.07127 11.0609 9.07127C12.0997 9.07127 12.6025 9.83997 12.6025 10.7618C12.6025 11.7915 11.9369 13.3303 11.5926 14.7571C11.3058 15.9527 12.202 16.9257 13.3979 16.9257C15.5648 16.9257 17.2303 14.6763 17.2303 11.4299C17.2303 8.55644 15.134 6.54816 12.1386 6.54816C8.67064 6.54816 6.63481 9.10956 6.63481 11.7561C6.63481 12.7871 7.03679 13.8934 7.54107 14.4947C7.64048 14.6139 7.65489 14.7174 7.62607 14.8394C7.53386 15.2181 7.32783 16.0336 7.28749 16.1995C7.23418 16.4193 7.11027 16.4661 6.8783 16.3612C5.35684 15.6634 4.40592 13.4707 4.40592 11.7121C4.40592 7.92672 7.1996 4.44912 12.4599 4.44912C16.6886 4.44912 19.975 7.41614 19.975 11.3802C19.975 15.5159 17.3254 18.8446 13.65 18.8446C12.4138 18.8446 11.2525 18.212 10.8549 17.466C10.8549 17.466 10.244 19.7565 10.0956 20.3182C9.82039 21.3606 9.07694 22.6668 8.58131 23.4639C9.72097 23.8128 10.9327 24 12.1905 24C18.9233 24 24.381 18.6276 24.381 12C24.381 5.371 18.9233 0 12.1905 0C5.45769 0 0 5.371 0 12Z" fill="white"/>
</svg>
