<svg width="22" height="16" viewBox="0 0 22 16" fill="none" xmlns="http://www.w3.org/2000/svg">
<path fill-rule="evenodd" clip-rule="evenodd" d="M19.2388 1.22971C20.1683 1.46627 20.9002 2.16328 21.1486 3.04841C21.6 4.65262 21.6 7.9998 21.6 7.9998C21.6 7.9998 21.6 11.3469 21.1486 12.9512C20.9002 13.8363 20.1683 14.5333 19.2388 14.77C17.5545 15.1998 10.8 15.1998 10.8 15.1998C10.8 15.1998 4.04546 15.1998 2.36103 14.77C1.43161 14.5333 0.699668 13.8363 0.451268 12.9512C0 11.3469 0 7.9998 0 7.9998C0 7.9998 0 4.65262 0.451268 3.04841C0.699668 2.16328 1.43161 1.46627 2.36103 1.22971C4.04546 0.799805 10.8 0.799805 10.8 0.799805C10.8 0.799805 17.5545 0.799805 19.2388 1.22971ZM14.04 7.99992L9.72 4.91409V11.0855L14.04 7.99992Z" fill="white"/>
</svg>
