<svg width="139" height="52" viewBox="0 0 139 52" fill="none" xmlns="http://www.w3.org/2000/svg">
<g style="mix-blend-mode:difference">
<path d="M12.4048 0C11.8963 0 11.3516 0.28899 10.7705 0.86697L3.47574 7.49826H5.0011L12.2958 2.85378C12.5864 2.66112 12.8769 2.44437 13.1675 2.20355C13.458 1.93864 13.6033 1.58945 13.6033 1.15596C13.6033 0.77064 13.458 0.48165 13.1675 0.28899C12.9011 0.0963299 12.6469 0 12.4048 0Z" fill="black"/>
<path d="M0.18159 14.212C0.254226 15.7533 0.290544 17.3186 0.290544 18.9081V25.1214C0.290544 26.7108 0.254226 28.2762 0.18159 29.8175C0.133166 31.3347 0.0726359 32.8639 0 34.4052C1.11375 34.357 2.2154 34.3329 3.30494 34.3329H9.87849C10.968 34.3329 12.0576 34.357 13.1471 34.4052C13.0745 34.1644 13.0382 33.8513 13.0382 33.466V32.9241C13.0624 32.7074 13.0987 32.5147 13.1471 32.3461C12.566 32.4666 11.876 32.5629 11.077 32.6351C10.3022 32.6833 9.46689 32.7315 8.57104 32.7796C7.69941 32.8037 6.80357 32.8157 5.88351 32.8157H3.34125C3.31704 32.3582 3.29283 31.6839 3.26862 30.7928V22.8817C3.29283 22.6168 3.30494 22.376 3.30494 22.1592C3.74075 22.1592 4.32184 22.1713 5.0482 22.1954C5.79877 22.1954 6.58566 22.2074 7.40887 22.2315C8.25629 22.2315 9.0916 22.2556 9.91481 22.3037C10.7622 22.3519 11.5007 22.4121 12.1302 22.4843C12.0576 22.1231 12.0213 21.7619 12.0213 21.4006C12.0213 21.0153 12.0576 20.642 12.1302 20.2808C11.5975 20.329 11.0286 20.3771 10.4233 20.4253C9.84217 20.4494 9.20056 20.4855 8.49841 20.5337C7.79626 20.5577 7.02148 20.5818 6.17406 20.6059C5.32664 20.63 4.37026 20.642 3.30494 20.642C3.30494 20.1845 3.29283 19.5102 3.26862 18.6191V15.8737C3.26862 14.9826 3.28073 14.1879 3.30494 13.4895C3.35336 12.7911 3.38968 12.0566 3.41389 11.286C4.60028 11.286 5.61718 11.3101 6.4646 11.3582C7.31202 11.3823 8.08681 11.4184 8.78895 11.4666C9.51531 11.5148 10.1932 11.5629 10.8228 11.6111C11.4765 11.6592 12.1907 11.7074 12.9655 11.7556C12.8929 11.3943 12.8566 11.0331 12.8566 10.6719C12.8566 10.3106 12.8929 9.94939 12.9655 9.58815C11.876 9.63632 10.7985 9.68448 9.73322 9.73265C8.66789 9.75673 7.59046 9.76877 6.50092 9.76877C5.41138 9.76877 4.32184 9.75673 3.2323 9.73265C2.16697 9.68448 1.08954 9.63632 0 9.58815C0.0726359 11.1294 0.133166 12.6707 0.18159 14.212Z" fill="black"/>
<path d="M28.1464 14.2842C28.2191 15.8014 28.2554 17.3548 28.2554 18.9442V25.1575C28.2554 26.7469 28.2191 28.3123 28.1464 29.8536C28.098 31.3949 28.0375 32.9121 27.9648 34.4052C29.127 34.357 30.2408 34.3329 31.3061 34.3329H38.0249C39.1387 34.3329 40.2524 34.357 41.3662 34.4052C41.2451 34.0199 41.1846 33.6948 41.1846 33.4298C41.1846 33.1409 41.2451 32.7796 41.3662 32.3461C39.5503 32.587 37.8554 32.7315 36.2817 32.7796C34.7079 32.8037 33.0615 32.8157 31.3424 32.8157C31.3182 31.0577 31.294 29.0709 31.2698 26.8553C31.2456 24.6156 31.2335 21.9786 31.2335 18.9442C31.2335 17.3548 31.2577 15.8014 31.3061 14.2842C31.3787 12.743 31.4514 11.1776 31.524 9.58815C31.2093 9.63632 30.9066 9.68448 30.6161 9.73265C30.3255 9.75673 30.035 9.76877 29.7444 9.76877C29.4539 9.76877 29.1633 9.75673 28.8728 9.73265C28.5823 9.68448 28.2796 9.63632 27.9648 9.58815C28.0375 11.1776 28.098 12.743 28.1464 14.2842Z" fill="black"/>
<path d="M56.2202 18.9442C56.2202 17.3548 56.1839 15.8014 56.1113 14.2842C56.0629 12.743 56.0023 11.1776 55.9297 9.58815C56.2445 9.63632 56.5471 9.68448 56.8376 9.73265C57.1282 9.75673 57.4187 9.76877 57.7093 9.76877C57.9998 9.76877 58.2904 9.75673 58.5809 9.73265C58.8715 9.68448 59.1741 9.63632 59.4889 9.58815C59.4162 11.1776 59.3436 12.743 59.271 14.2842C59.2225 15.8014 59.1983 17.3548 59.1983 18.9442V25.1575C59.1983 26.7469 59.2225 28.3123 59.271 29.8536C59.3436 31.3949 59.4162 32.9121 59.4889 34.4052C58.932 34.357 58.3388 34.3329 57.7093 34.3329C57.0798 34.3329 56.4866 34.357 55.9297 34.4052C56.0023 32.9121 56.0629 31.3949 56.1113 29.8536C56.1839 28.3123 56.2202 26.7469 56.2202 25.1575V18.9442Z" fill="black"/>
<path d="M81.0734 11.4666C81.146 13.9471 81.1823 16.4396 81.1823 18.9442V25.1575C81.1823 26.7469 81.146 28.3123 81.0734 29.8536C81.025 31.3949 80.9644 32.9121 80.8918 34.4052C81.4487 34.357 82.0418 34.3329 82.6714 34.3329C83.3009 34.3329 83.8941 34.357 84.4509 34.4052C84.3783 32.9121 84.3057 31.3949 84.233 29.8536C84.1846 28.3123 84.1604 26.7469 84.1604 25.1575V18.9442C84.1604 16.4396 84.1967 13.9471 84.2694 11.4666C84.8989 11.4666 85.5526 11.4786 86.2305 11.5027C86.9327 11.5027 87.6227 11.5268 88.3007 11.575C89.0028 11.599 89.6686 11.6352 90.2981 11.6833C90.9519 11.7315 91.533 11.7917 92.0414 11.8639C91.9203 11.4305 91.8598 11.0572 91.8598 10.7441C91.8598 10.4551 91.9203 10.0698 92.0414 9.58815C90.4434 9.63632 88.8817 9.68448 87.3564 9.73265C85.831 9.75673 84.2694 9.76877 82.6714 9.76877C81.0734 9.76877 79.5117 9.75673 77.9863 9.73265C76.461 9.68448 74.8993 9.63632 73.3013 9.58815C73.4224 10.0698 73.4829 10.4431 73.4829 10.708C73.4829 11.0451 73.4224 11.4305 73.3013 11.8639C73.8098 11.7917 74.3788 11.7315 75.0083 11.6833C75.662 11.6352 76.3278 11.599 77.0058 11.575C77.7079 11.5268 78.3979 11.5027 79.0759 11.5027C79.778 11.4786 80.4439 11.4666 81.0734 11.4666Z" fill="black"/>
<path d="M106.121 18.9442C106.121 17.3548 106.084 15.8014 106.012 14.2842C105.963 12.743 105.903 11.1776 105.83 9.58815C106.145 9.63632 106.447 9.68448 106.738 9.73265C107.029 9.75673 107.319 9.76877 107.61 9.76877C107.9 9.76877 108.191 9.75673 108.481 9.73265C108.772 9.68448 109.074 9.63632 109.389 9.58815C109.317 11.1776 109.244 12.743 109.171 14.2842C109.123 15.8014 109.099 17.3548 109.099 18.9442V25.1575C109.099 26.7469 109.123 28.3123 109.171 29.8536C109.244 31.3949 109.317 32.9121 109.389 34.4052C108.832 34.357 108.239 34.3329 107.61 34.3329C106.98 34.3329 106.387 34.357 105.83 34.4052C105.903 32.9121 105.963 31.3949 106.012 29.8536C106.084 28.3123 106.121 26.7469 106.121 25.1575V18.9442Z" fill="black"/>
<path d="M125.998 31.0457C125.683 30.5881 125.429 30.1426 125.235 29.7091H124.8C124.727 30.4075 124.642 30.9855 124.545 31.443C124.473 31.8765 124.328 32.3702 124.11 32.9241C124.739 33.4298 125.514 33.8874 126.434 34.2968C127.378 34.6821 128.601 34.8748 130.102 34.8748C131.506 34.8748 132.753 34.6821 133.843 34.2968C134.957 33.8874 135.889 33.3215 136.639 32.599C137.414 31.8524 137.995 30.9855 138.383 29.9981C138.794 29.0107 139 27.9631 139 26.8553C139 25.5308 138.709 24.4712 138.128 23.6764C137.572 22.8817 136.869 22.2315 136.022 21.7257C135.175 21.22 134.254 20.7986 133.262 20.4614C132.293 20.1002 131.385 19.7028 130.538 19.2693C129.69 18.8118 128.976 18.2579 128.395 17.6076C127.838 16.9574 127.56 16.0663 127.56 14.9345C127.56 14.2842 127.669 13.6822 127.887 13.1283C128.129 12.5744 128.456 12.1048 128.867 11.7195C129.303 11.3101 129.799 10.997 130.356 10.7802C130.937 10.5635 131.567 10.4551 132.245 10.4551C132.923 10.4551 133.504 10.5755 133.988 10.8164C134.472 11.0331 134.884 11.3101 135.223 11.6472C135.586 11.9844 135.865 12.3576 136.058 12.767C136.276 13.1524 136.446 13.5136 136.567 13.8508H137.003C137.148 13.1524 137.293 12.5744 137.438 12.1168C137.584 11.6592 137.765 11.2258 137.983 10.8164C137.257 10.2384 136.47 9.81693 135.622 9.55203C134.775 9.26304 133.77 9.11854 132.608 9.11854C131.397 9.11854 130.308 9.28712 129.339 9.62428C128.371 9.96143 127.536 10.431 126.833 11.0331C126.156 11.6352 125.635 12.3576 125.272 13.2005C124.909 14.0193 124.727 14.9345 124.727 15.9459C124.727 17.3668 125.005 18.4987 125.562 19.3416C126.143 20.1845 126.858 20.8829 127.705 21.4368C128.553 21.9666 129.46 22.4121 130.429 22.7733C131.422 23.1346 132.342 23.5319 133.189 23.9654C134.037 24.3989 134.739 24.9408 135.296 25.591C135.877 26.2412 136.167 27.1202 136.167 28.228C136.167 28.9505 136.046 29.6368 135.804 30.2871C135.562 30.9132 135.211 31.4671 134.751 31.9488C134.315 32.4063 133.77 32.7796 133.117 33.0686C132.487 33.3335 131.773 33.466 130.974 33.466C130.199 33.466 129.497 33.3576 128.867 33.1409C128.238 32.9 127.681 32.599 127.197 32.2378C126.737 31.8765 126.337 31.4792 125.998 31.0457Z" fill="black"/>
<path d="M74.3154 43.4465L75.0702 43.5135C75.3667 43.5404 75.4476 43.6878 75.3533 44.1169L73.8302 50.7666C73.7223 51.209 73.6145 51.3565 73.3045 51.3967L72.5901 51.4637L72.5227 51.8391H79.1947L79.9226 49.6002H79.5452C78.7095 51.2492 78.413 51.3967 76.6742 51.3967C75.0837 51.3967 75.0298 51.2358 75.2454 50.3108L75.8924 47.5222H77.4829C78.5747 47.5222 78.6286 47.7903 78.5747 48.6215H78.9656L79.5452 45.9536H79.1678C78.8308 46.8384 78.6825 47.0395 77.5908 47.0395H76.0003L76.7146 43.8889C76.782 43.594 76.8629 43.527 77.092 43.527H78.3456C79.7878 43.527 79.8687 43.6074 79.8013 45.2028H80.1922L80.6639 43.0845H74.4098L74.3154 43.4465Z" fill="black"/>
<path d="M77.3751 42.5885L79.2621 41.9182C79.68 41.7707 79.9765 41.6366 79.9765 41.3819C79.9765 41.1137 79.7474 40.7115 79.5182 40.7115C79.3192 40.7115 79.1594 40.8285 78.7173 41.1518L78.696 41.1674L77.2268 42.2801L77.3751 42.5885Z" fill="black"/>
<path fill-rule="evenodd" clip-rule="evenodd" d="M24.8206 50.5521L24.8545 50.9141C24.8949 51.276 24.8005 51.3833 24.5445 51.4101L23.8705 51.4637L23.7896 51.8391H27.0785L27.1593 51.4637L26.6741 51.4369C26.2967 51.3967 26.2428 51.2224 26.1754 50.6996C26.0141 49.5768 25.4876 45.2067 25.2786 43.4722L25.2784 43.4708L25.2319 43.0845H24.2614C23.0618 45.2966 21.4443 48.1523 19.9347 50.5923C19.5303 51.2358 19.3282 51.3699 18.9373 51.4235L18.5194 51.4637L18.4386 51.8391H21.3095L21.3769 51.4637L20.6895 51.4101C20.4334 51.3833 20.393 51.1956 20.5278 50.9409C20.6999 50.5906 20.9766 50.0776 21.2575 49.5568C21.4604 49.1807 21.6657 48.8 21.8352 48.474H24.5984C24.6577 48.8045 24.7379 49.665 24.8206 50.5521ZM24.5445 47.9914H22.0913C22.4059 47.4378 22.8847 46.5576 23.3253 45.7475C23.6209 45.204 23.8994 44.692 24.0997 44.3314H24.1266C24.1904 44.7753 24.2777 45.58 24.3663 46.3965C24.4275 46.9608 24.4894 47.5312 24.5445 47.9914Z" fill="black"/>
<path d="M33.269 45.6586C32.8916 46.9591 32.676 47.5624 32.3525 48.2997C31.8133 49.5734 30.6541 51.276 29.6702 51.276C29.2928 51.276 29.1984 50.9275 29.3871 50.2035L30.6002 45.5648L30.5328 45.5111L28.201 45.8463L28.1201 46.1681L28.9019 46.2217C29.1984 46.2485 29.1984 46.4496 29.0906 46.8384L28.2145 50.1499C27.9584 51.1554 28.0527 52 29.0636 52C30.2902 52 31.5707 50.7532 32.339 49.2918H32.3659L31.9885 50.6057C31.7459 51.4637 31.9077 52 32.5816 52C33.5116 52 34.2665 51.1286 34.7247 50.1901L34.4147 49.9756C34.1586 50.4448 33.5386 51.3028 33.2016 51.3028C32.959 51.3028 32.986 51.0213 33.0938 50.6325L34.4282 45.5111L33.269 45.6586Z" fill="black"/>
<path d="M39.7026 45.6586L39.5543 46.1547H38.0986L36.9799 50.713C36.899 51.0213 36.9125 51.2894 37.1551 51.2894C37.5056 51.2894 38.193 50.4716 38.4895 49.9756L38.7726 50.2035C38.2604 51.1554 37.4651 52 36.4407 52C35.8072 52 35.632 51.4637 35.8207 50.7264L36.9529 46.1547H35.9151L36.0499 45.6586H37.0742L37.3573 44.5191L38.5165 43.8487L38.6782 43.9426L38.2065 45.6586H39.7026Z" fill="black"/>
<path fill-rule="evenodd" clip-rule="evenodd" d="M44.1853 49.8951C43.7 50.5789 42.9722 51.3565 42.0152 51.3565C41.1256 51.3565 40.8695 50.6057 40.8695 49.627C40.8695 49.5599 40.8695 49.2516 40.883 49.1578C42.2039 49.0103 44.8862 48.5008 44.8862 46.7848C44.8862 46.101 44.4144 45.4977 43.3765 45.4977C42.2308 45.4977 41.3412 46.0206 40.6403 46.8786C39.9664 47.6964 39.5755 48.8628 39.5755 49.9086C39.5755 51.6782 40.6538 52 41.4625 52C42.4734 52 43.6191 51.571 44.4953 50.1499L44.1853 49.8951ZM40.9234 48.7288C41.1391 47.2004 42.0556 45.9402 43.0396 45.9402C43.4844 45.9402 43.7405 46.2485 43.7405 46.6909C43.7405 47.8975 42.5678 48.4874 40.9234 48.7288Z" fill="black"/>
<path d="M49.9907 48.2997C50.3142 47.5624 50.5299 46.9591 50.9073 45.6586L52.0665 45.5111L50.7321 50.6325C50.6242 51.0213 50.5973 51.3028 50.8399 51.3028C51.1769 51.3028 51.7969 50.4448 52.053 49.9756L52.363 50.1901C51.9047 51.1286 51.1499 52 50.2199 52C49.5459 52 49.3842 51.4637 49.6268 50.6057L50.0042 49.2918H49.9772C49.209 50.7532 47.9285 52 46.7019 52C45.691 52 45.5966 51.1554 45.8527 50.1499L46.7289 46.8384C46.8367 46.4496 46.8367 46.2485 46.5401 46.2217L45.7584 46.1681L45.8393 45.8463L48.1711 45.5111L48.2385 45.5648L47.0254 50.2035C46.8367 50.9275 46.931 51.276 47.3084 51.276C48.2924 51.276 49.4516 49.5734 49.9907 48.2997Z" fill="black"/>
<path d="M54.3216 51.8391C54.5777 50.8202 54.8608 49.7879 55.2247 48.8092C55.7099 47.5222 56.2895 46.5971 56.6535 46.5971C56.8291 46.5971 56.9074 46.6721 56.9885 46.7496C57.0753 46.8328 57.1652 46.9189 57.3813 46.9189C57.7048 46.9189 58.0148 46.4362 58.0283 46.0608C58.0418 45.7123 57.8531 45.4977 57.4487 45.4977C56.7208 45.4977 55.8447 46.4898 55.1573 47.8975H55.1034L55.683 45.5648L55.6156 45.5111L53.459 45.8597L53.3781 46.1681L54.2407 46.2351C54.4699 46.2485 54.4295 46.5703 54.2138 47.4953L53.1894 51.9866L54.3216 51.8391Z" fill="black"/>
<path fill-rule="evenodd" clip-rule="evenodd" d="M63.0265 45.6318C63.0265 44.1571 64.0778 43.2722 65.264 43.2722H65.2775C66.2614 43.2722 67.0971 43.8353 67.0971 44.881C67.0971 46.0805 66.218 46.4585 64.738 47.0951L64.7113 47.1065C65.1561 47.8975 65.911 48.9165 66.7601 49.8281C67.8249 48.7288 68.135 47.5624 68.2158 46.5837C68.5663 46.4094 68.9033 46.329 69.2133 46.3692C69.402 46.9189 69.3346 47.2942 69.1324 47.683C68.7011 48.5008 68.108 49.2248 67.0567 50.1499C67.1381 50.2229 67.223 50.3024 67.3116 50.3853C67.8247 50.8656 68.4626 51.4626 69.2672 51.6112L69.2133 51.933L68.5932 51.9062C67.5823 51.8659 66.7871 51.5174 66.1805 50.9543C65.264 51.705 64.5766 51.9866 63.5926 51.9866C61.9347 51.9866 61.1664 50.8738 61.1664 49.7879C61.1664 48.3486 62.0988 47.8842 63.2544 47.3087C63.3259 47.2731 63.3983 47.2371 63.4713 47.2004C63.2152 46.7714 63.0265 46.0608 63.0265 45.6318ZM66.0862 44.7202C66.0862 44.2375 65.8301 43.7146 65.1831 43.7146H65.1696C64.6305 43.7146 64.0644 44.2777 64.0644 45.2296C64.0644 45.7122 64.2396 46.3558 64.5226 46.7714C65.3314 46.396 66.0862 45.7123 66.0862 44.7202ZM63.66 47.5758C63.3095 47.7367 62.393 48.2729 62.393 49.56V49.5734C62.393 50.4582 63.0669 51.2894 64.1452 51.2894C64.8596 51.2894 65.3988 51.0481 65.8705 50.6459C65.0079 49.7209 64.2531 48.5813 63.66 47.5758Z" fill="black"/>
<path fill-rule="evenodd" clip-rule="evenodd" d="M85.6665 42.9773L85.7339 42.6957L88.0253 42.4008L88.0927 42.4544L86.0709 50.6191C85.9766 51.0079 85.9631 51.3028 86.1787 51.3028C86.5292 51.3028 87.0953 50.3912 87.3379 49.9488L87.6614 50.1767C87.2301 51.142 86.5292 52 85.5452 52C84.8983 52 84.7096 51.4771 84.9522 50.5789C84.9863 50.4543 85.0215 50.3266 85.0572 50.1972L85.0577 50.1953C85.1486 49.8656 85.2426 49.5249 85.3296 49.198H85.3161C84.5748 50.5521 83.483 52 82.0273 52C80.9894 52 80.7468 51.1286 80.7468 50.3108C80.7468 48.7824 82.0947 45.4977 85.0465 45.4977C85.4778 45.4977 85.8822 45.6184 86.1248 45.7525L86.637 43.5672C86.7314 43.165 86.7179 43.0845 86.4079 43.0577L85.6665 42.9773ZM85.1409 45.967C83.146 45.967 82.0408 49.0505 82.0408 50.4046V50.418C82.0408 50.9677 82.2295 51.3028 82.6338 51.3028C83.8604 51.3028 85.397 48.4338 85.7339 47.187C85.7675 47.0583 85.7993 46.9415 85.8301 46.8287C85.8857 46.6244 85.938 46.4327 85.99 46.2083C85.8552 46.1145 85.5183 45.967 85.1409 45.967Z" fill="black"/>
<path d="M91.1614 49.9756C90.9187 50.418 90.3526 51.3028 90.0022 51.3028C89.7596 51.3028 89.7865 51.0213 89.8944 50.6191L91.2692 45.5782L91.2018 45.5111L88.87 45.8731L88.7756 46.1815L89.5035 46.2485C89.8539 46.2753 89.8944 46.396 89.773 46.825L88.7082 50.7398C88.5195 51.4637 88.6947 52 89.3956 52C90.3257 52 91.0266 51.1554 91.4579 50.1901L91.1614 49.9756Z" fill="black"/>
<path d="M91.0805 42.9237C90.5279 42.9237 90.2448 43.3661 90.2448 43.7683C90.2448 44.2375 90.5683 44.4922 90.9592 44.4922C91.4579 44.4922 91.7814 44.1437 91.7814 43.6342C91.7814 43.1382 91.4444 42.9237 91.094 42.9237H91.0805Z" fill="black"/>
<path d="M96.5268 45.6586L96.3785 46.1547H94.9228L93.804 50.713C93.7232 51.0213 93.7367 51.2894 93.9793 51.2894C94.3297 51.2894 95.0171 50.4716 95.3137 49.9756L95.5967 50.2035C95.0845 51.1554 94.2893 52 93.2649 52C92.6314 52 92.4562 51.4637 92.6449 50.7264L93.7771 46.1547H92.7392L92.874 45.6586H93.8984L94.1814 44.5191L95.3406 43.8487L95.5024 43.9426L95.0306 45.6586H96.5268Z" fill="black"/>
<path fill-rule="evenodd" clip-rule="evenodd" d="M101.009 49.8951C100.524 50.5789 99.7963 51.3565 98.8393 51.3565C97.9497 51.3565 97.6936 50.6057 97.6936 49.627C97.6936 49.56 97.6936 49.2516 97.7071 49.1578C99.028 49.0103 101.71 48.5008 101.71 46.7848C101.71 46.101 101.239 45.4977 100.201 45.4977C99.055 45.4977 98.1654 46.0206 97.4645 46.8786C96.7905 47.6964 96.3997 48.8628 96.3997 49.9086C96.3997 51.6782 97.478 52 98.2867 52C99.2976 52 100.443 51.571 101.319 50.1499L101.009 49.8951ZM97.7475 48.7288C97.9632 47.2004 98.8798 45.9402 99.8637 45.9402C100.309 45.9402 100.565 46.2485 100.565 46.6909C100.565 47.8975 99.3919 48.4874 97.7475 48.7288Z" fill="black"/>
<path d="M106.815 48.2997C107.138 47.5624 107.354 46.9591 107.731 45.6586L108.891 45.5111L107.556 50.6325C107.448 51.0213 107.421 51.3028 107.664 51.3028C108.001 51.3028 108.621 50.4448 108.877 49.9756L109.187 50.1901C108.729 51.1286 107.974 52 107.044 52C106.37 52 106.208 51.4637 106.451 50.6057L106.828 49.2918H106.801C106.033 50.7532 104.753 52 103.526 52C102.515 52 102.421 51.1554 102.677 50.1499L103.553 46.8384C103.661 46.4496 103.661 46.2485 103.364 46.2217L102.583 46.1681L102.663 45.8463L104.995 45.5111L105.063 45.5648L103.85 50.2035C103.661 50.9275 103.755 51.276 104.133 51.276C105.117 51.276 106.276 49.5734 106.815 48.2997Z" fill="black"/>
<path d="M111.146 51.8391C111.402 50.8202 111.685 49.7879 112.049 48.8092C112.534 47.5222 113.114 46.5971 113.478 46.5971C113.653 46.5971 113.732 46.6721 113.813 46.7496C113.899 46.8328 113.989 46.9189 114.205 46.9189C114.529 46.9189 114.839 46.4362 114.852 46.0608C114.866 45.7123 114.677 45.4977 114.273 45.4977C113.545 45.4977 112.669 46.4898 111.981 47.8975H111.928L112.507 45.5648L112.44 45.5111L110.283 45.8597L110.202 46.1681L111.065 46.2351C111.294 46.2485 111.254 46.5703 111.038 47.4953L110.014 51.9866L111.146 51.8391Z" fill="black"/>
<path d="M115.35 51.0883C115.35 51.5978 115.027 51.9866 114.488 51.9866H114.474C113.989 51.9866 113.8 51.6648 113.8 51.209C113.8 50.6995 114.124 50.2839 114.65 50.2839C115.148 50.2839 115.35 50.6191 115.35 51.0883Z" fill="black"/>
</g>
</svg>